<svg width="147" height="34" viewBox="0 0 147 34" fill="none" xmlns="http://www.w3.org/2000/svg">
<g clip-path="url(#clip0_1_315)">
<path d="M46.6617 9.87822H47.1727C47.6197 9.87997 48.0657 9.84433 48.5057 9.77168C48.9057 9.72177 49.2937 9.60306 49.6527 9.4208C50.0057 9.25122 50.3027 8.98257 50.5057 8.64757C50.7407 8.26376 50.8547 7.81745 50.8297 7.36788C50.8507 6.90164 50.7387 6.43914 50.5057 6.0345C50.3037 5.70487 50.0067 5.44459 49.6527 5.28833C49.1037 5.00294 48.4957 4.8506 47.8767 4.84358H46.6637L46.6617 9.87822ZM57.9577 20.9646H51.5737L46.7437 13.2282H46.6637V20.9646H41.4757V0.860352H49.1897C51.2137 0.860352 52.8637 1.35061 54.1407 2.33113C55.4167 3.31165 56.0687 4.88318 56.0957 7.04573C56.1217 8.3559 55.7437 9.64223 55.0117 10.7292C54.2527 11.7777 53.1167 12.4912 51.8437 12.72L57.9577 20.9646Z" fill="#434345"/>
<path d="M69.5891 6.78299H69.541L67.4521 13.2038H71.6561L69.5891 6.78299ZM66.0381 17.1896L64.705 20.6778H59.336L66.819 0.575195H72.3331L79.6651 20.6778H74.2701L72.9991 17.1896H66.0381Z" fill="#434345"/>
<path d="M97.5538 16.2441V20.6873H80.8868L90.1018 5.01058H82.1838V0.567383H98.5448L89.3778 16.2441H97.5538Z" fill="#434345"/>
<path d="M110.53 5.08078C109.811 5.07333 109.098 5.20854 108.433 5.47857C107.767 5.7486 107.161 6.14808 106.651 6.65386C106.139 7.11075 105.73 7.67007 105.449 8.2955C105.168 8.92093 105.022 9.59847 105.02 10.2841C104.997 11.0602 105.13 11.833 105.41 12.5572C105.69 13.2813 106.112 13.9423 106.651 14.5011C107.146 15.0336 107.747 15.4574 108.414 15.7458C109.082 16.0342 109.803 16.1808 110.53 16.1765C111.261 16.1874 111.987 16.0438 112.659 15.7551C113.332 15.4664 113.935 15.0391 114.431 14.5011C114.963 13.9384 115.379 13.2763 115.654 12.5527C115.93 11.8291 116.06 11.0581 116.038 10.2841C116.036 9.6005 115.892 8.92471 115.615 8.29972C115.338 7.67474 114.934 7.11423 114.429 6.65386C113.919 6.14307 113.31 5.74049 112.641 5.47019C111.971 5.1999 111.254 5.06745 110.532 5.08078H110.53ZM110.53 0.0288112C113.294 0.0103679 115.964 1.0263 118.017 2.87694C120.15 4.74018 121.243 7.19894 121.297 10.2533C121.261 13.5119 120.257 16.1424 118.284 18.1449C116.311 20.1474 113.726 21.1738 110.53 21.2243C107.345 21.1888 104.774 20.1623 102.816 18.1449C100.858 16.1275 99.8398 13.4969 99.7628 10.2533C99.8168 7.19584 100.919 4.73708 103.069 2.87694C105.113 1.02859 107.774 0.012797 110.53 0.0288112Z" fill="#434345"/>
<path d="M125.819 0.575195H130.8L134.755 11.3154L138.932 0.575195H143.971L146.908 20.6778H141.856L140.429 9.10224H140.38L135.702 20.6778H133.697L129.223 9.10224H129.174L127.547 20.6778H122.517L125.819 0.575195Z" fill="#434345"/>
<path d="M43.7196 32.1757V26.5217H41.4776V25.8584H46.8587V26.5293H44.6166V32.1829L43.7196 32.1757Z" fill="#434345"/>
<path d="M49.589 31.6458C50.477 31.6458 50.927 31.048 50.927 29.8449C50.927 28.6417 50.486 28.0625 49.608 28.0625C48.729 28.0625 48.292 28.6603 48.292 29.8525C48.292 31.0447 48.744 31.6458 49.603 31.6458H49.589ZM49.589 32.28C49.292 32.292 48.996 32.2393 48.722 32.1253C48.448 32.0113 48.201 31.8389 48 31.62C47.612 31.1116 47.402 30.4899 47.402 29.8504C47.402 29.2109 47.612 28.5891 48 28.0807C48.436 27.6647 49.015 27.4326 49.617 27.4326C50.219 27.4326 50.798 27.6647 51.234 28.0807C51.624 28.5901 51.836 29.2142 51.836 29.8563C51.836 30.4983 51.624 31.1225 51.234 31.6319C51.022 31.8514 50.766 32.0229 50.482 32.1349C50.198 32.2469 49.894 32.2958 49.589 32.28Z" fill="#434345"/>
<path d="M56.1238 30.5684V28.6402C55.9738 28.4657 55.7888 28.3243 55.5818 28.2251C55.3738 28.1259 55.1478 28.071 54.9178 28.0639C54.7388 28.0579 54.5608 28.0975 54.4018 28.1788C54.2428 28.2601 54.1058 28.3806 54.0058 28.529C53.7678 28.9104 53.6538 29.3559 53.6778 29.8049C53.6778 30.8229 54.0348 31.332 54.7498 31.3323C55.0218 31.3153 55.2858 31.2378 55.5238 31.1053C55.7618 30.9728 55.9668 30.7888 56.1238 30.5667V30.5684ZM53.1648 33.7179L53.2638 32.9887C53.7118 33.2098 54.2038 33.3281 54.7028 33.3349C55.6508 33.3349 56.1248 32.832 56.1248 31.8261V31.0968C56.0008 31.396 55.7878 31.6498 55.5148 31.8237C55.2408 31.9977 54.9208 32.0834 54.5978 32.0692C54.3448 32.0795 54.0928 32.0301 53.8618 31.925C53.6318 31.8199 53.4288 31.662 53.2708 31.4642C52.9248 30.991 52.7518 30.4131 52.7818 29.8277C52.7538 29.2045 52.9518 28.5921 53.3398 28.1033C53.5158 27.8884 53.7388 27.7166 53.9918 27.601C54.2448 27.4854 54.5198 27.429 54.7978 27.4361C55.0538 27.4361 55.3068 27.4926 55.5378 27.6016C55.7688 27.7107 55.9738 27.8696 56.1358 28.0669V27.5346H56.9818V30.9104C56.9968 31.4498 56.9588 31.9894 56.8688 32.5215C56.8098 32.8408 56.6638 33.1374 56.4458 33.378C56.2168 33.5888 55.9458 33.7498 55.6508 33.8508C55.3558 33.9518 55.0438 33.9906 54.7328 33.9648C54.1998 33.9682 53.6698 33.8848 53.1638 33.7179H53.1648Z" fill="#434345"/>
<path d="M59.132 29.3534H61.1809C61.1809 28.4897 60.856 28.0593 60.215 28.0593C59.573 28.0593 59.208 28.4897 59.132 29.3534ZM62.0039 32.0252C61.5329 32.1785 61.042 32.2639 60.546 32.2789C60.235 32.2909 59.924 32.2363 59.636 32.1187C59.347 32.0011 59.087 31.8232 58.873 31.597C58.653 31.3606 58.482 31.083 58.37 30.7804C58.258 30.4777 58.207 30.1558 58.219 29.8332C58.191 29.2065 58.395 28.5914 58.792 28.1054C58.967 27.8888 59.189 27.7152 59.442 27.5979C59.695 27.4807 59.9709 27.4229 60.2499 27.429C60.4989 27.4156 60.7469 27.463 60.9739 27.5672C61.2009 27.6715 61.399 27.8293 61.551 28.0272C61.887 28.5271 62.049 29.1244 62.01 29.7258V29.9879H59.093C59.212 31.0888 59.751 31.6392 60.712 31.6392C61.155 31.6195 61.5909 31.5246 62.0019 31.3585L62.0039 32.0252Z" fill="#434345"/>
<path d="M64.8679 32.2807C64.6859 32.2914 64.5029 32.2647 64.3309 32.202C64.1589 32.1393 64.0019 32.042 63.8699 31.9162C63.7429 31.7793 63.6459 31.6184 63.5839 31.4431C63.5209 31.2677 63.4939 31.0816 63.5049 30.8957V28.1689H62.9259V27.5348H63.5049V26.6926L64.3469 26.6123V27.5348H65.5609V28.1651H64.3479V30.7389C64.3479 31.344 64.6099 31.6465 65.1349 31.6465C65.2719 31.6432 65.4079 31.6248 65.5399 31.5916V32.175C65.3209 32.2385 65.0959 32.274 64.8679 32.2807Z" fill="#434345"/>
<path d="M66.7496 32.175V25.4277H67.5916V28.4095C67.7566 28.1212 67.9936 27.8803 68.2786 27.71C68.5636 27.5397 68.8886 27.4457 69.2206 27.4371C69.3986 27.4291 69.5766 27.459 69.7426 27.525C69.9086 27.591 70.0586 27.6914 70.1826 27.8197C70.4346 28.1001 70.5656 28.468 70.5476 28.844V32.1792H69.7096V29.1176C69.7276 28.8649 69.6746 28.6122 69.5566 28.3883C69.4976 28.3127 69.4206 28.2531 69.3326 28.215C69.2446 28.1768 69.1486 28.1612 69.0526 28.1697C68.5396 28.1697 68.0536 28.508 67.5946 29.1844V32.186L66.7496 32.175Z" fill="#434345"/>
<path d="M72.7097 29.3533H74.7547C74.7547 28.4906 74.4327 28.0592 73.7887 28.0592C73.1447 28.0592 72.7847 28.4906 72.7097 29.3533ZM75.5787 32.0251C75.1067 32.1784 74.6157 32.2638 74.1207 32.2788C73.8087 32.2908 73.4987 32.2361 73.2097 32.1185C72.9217 32.0009 72.6617 31.8231 72.4467 31.5969C72.0057 31.1167 71.7727 30.4811 71.7987 29.8293C71.7727 29.203 71.9767 28.5889 72.3707 28.1015C72.5457 27.885 72.7687 27.7115 73.0207 27.5942C73.2737 27.477 73.5497 27.4191 73.8287 27.4251C74.0777 27.4117 74.3267 27.4591 74.5527 27.5633C74.7797 27.6676 74.9777 27.8254 75.1297 28.0233C75.4667 28.5232 75.6277 29.1205 75.5897 29.7219V29.984H72.6727C72.7957 31.0849 73.3357 31.6353 74.2907 31.6353C74.7337 31.6156 75.1697 31.5206 75.5817 31.3546L75.5787 32.0251Z" fill="#434345"/>
<path d="M77.0509 32.1744V27.5342H77.9039V28.4089C78.0229 28.1206 78.2259 27.8744 78.4849 27.7013C78.7449 27.5282 79.0499 27.436 79.3619 27.4365C79.4509 27.4369 79.5399 27.4442 79.6279 27.4585V28.2419C79.5049 28.1981 79.3769 28.1736 79.2469 28.1692C78.7149 28.1692 78.2689 28.4851 77.9099 29.117V32.179L77.0509 32.1744Z" fill="#434345"/>
<path d="M84.195 32.1757L82.566 25.8584H83.43L84.724 30.8525L85.923 25.8584H86.787L87.914 30.7831L89.299 25.8584H90.028L88.256 32.1829H87.381L86.248 27.3165L85.081 32.1939L84.195 32.1757Z" fill="#434345"/>
<path d="M91.4137 29.3533H93.4587C93.4587 28.4906 93.1377 28.0592 92.4957 28.0592C91.8547 28.0592 91.4937 28.4906 91.4137 29.3533ZM94.2857 32.0251C93.8147 32.1782 93.3237 32.2636 92.8277 32.2788C92.5167 32.2904 92.2077 32.2356 91.9197 32.118C91.6317 32.0004 91.3727 31.8228 91.1587 31.5969C90.9387 31.3595 90.7687 31.0812 90.6577 30.7779C90.5467 30.4745 90.4957 30.1522 90.5097 29.8293C90.4837 29.2035 90.6857 28.5895 91.0777 28.1015C91.2537 27.885 91.4757 27.7115 91.7287 27.5942C91.9817 27.477 92.2577 27.4191 92.5367 27.4251C92.7857 27.4117 93.0337 27.4591 93.2607 27.5633C93.4877 27.6676 93.6857 27.8254 93.8377 28.0233C94.1737 28.5232 94.3357 29.1205 94.2967 29.7219V29.984H91.3797C91.5017 31.0849 92.0407 31.6353 92.9987 31.6353C93.4417 31.6156 93.8777 31.5206 94.2887 31.3546L94.2857 32.0251Z" fill="#434345"/>
<path d="M101.705 29.755L100.612 27.0324L99.518 29.755H101.705ZM102.653 32.1757L101.964 30.4221H99.285L98.589 32.1757H97.754L100.265 25.8584H101.153L103.621 32.1829L102.653 32.1757Z" fill="#434345"/>
<path d="M104.562 32.1744V27.5342H105.404V28.4089C105.523 28.1201 105.725 27.8733 105.985 27.7001C106.245 27.5268 106.55 27.4351 106.863 27.4365C106.953 27.4367 107.043 27.444 107.132 27.4585V28.2423C107.009 28.1985 106.88 28.1738 106.75 28.1692C106.217 28.1692 105.769 28.4863 105.412 29.117V32.1791L104.562 32.1744Z" fill="#434345"/>
<path d="M108.673 29.3532H110.711C110.711 28.4905 110.389 28.0592 109.745 28.0592C109.101 28.0592 108.744 28.4905 108.673 29.3532ZM111.542 32.0251C111.07 32.1783 110.579 32.2637 110.084 32.2787C109.772 32.2908 109.462 32.2362 109.173 32.1186C108.885 32.001 108.625 31.8231 108.411 31.5968C107.969 31.1165 107.736 30.4811 107.762 29.8293C107.737 29.203 107.94 28.5889 108.334 28.1015C108.509 27.8848 108.732 27.7113 108.985 27.594C109.237 27.4767 109.514 27.419 109.792 27.425C110.041 27.4117 110.29 27.4592 110.517 27.5634C110.743 27.6677 110.941 27.8255 111.093 28.0232C111.43 28.5231 111.591 29.1205 111.553 29.7219V29.984H108.635C108.759 31.0849 109.299 31.6353 110.254 31.6353C110.697 31.6156 111.133 31.5207 111.544 31.3546L111.542 32.0251Z" fill="#434345"/>
<path d="M115.708 25.8594H116.605V29.8511C116.567 30.3405 116.696 30.8284 116.969 31.236C117.111 31.3891 117.286 31.5078 117.48 31.583C117.675 31.6582 117.884 31.6879 118.092 31.6698C118.289 31.6904 118.488 31.6642 118.673 31.5933C118.858 31.5224 119.023 31.4088 119.156 31.2618C119.402 30.8413 119.508 30.3538 119.459 29.8692V25.8594H120.243V29.8692C120.301 30.5413 120.111 31.2115 119.71 31.7539C119.487 31.9671 119.22 32.1302 118.929 32.2323C118.637 32.3344 118.327 32.373 118.019 32.3458C117.701 32.3727 117.381 32.332 117.079 32.2265C116.778 32.1211 116.502 31.9531 116.27 31.7336C115.852 31.197 115.652 30.5228 115.709 29.8451L115.708 25.8594Z" fill="#434345"/>
<path d="M121.847 32.175V25.4277H122.686V29.7838L124.654 27.5348H125.558L123.681 29.6997L125.948 32.175H124.855L122.668 29.7944V32.175H121.847Z" fill="#434345"/>
<path d="M126.959 32.1744V27.5342H127.8V28.4089C127.92 28.1206 128.122 27.8744 128.382 27.7013C128.641 27.5282 128.947 27.436 129.259 27.4365C129.348 27.4369 129.437 27.4442 129.525 27.4585V28.2419C129.402 28.1979 129.273 28.1734 129.142 28.1692C128.61 28.1692 128.164 28.4851 127.804 29.117V32.179L126.959 32.1744Z" fill="#434345"/>
<path d="M132.824 31.1265V29.9271H132.54C132.149 29.9099 131.762 30.0007 131.42 30.1897C131.294 30.255 131.187 30.3536 131.112 30.4749C131.037 30.5962 130.996 30.7357 130.994 30.8783C130.993 30.9742 131.011 31.0694 131.048 31.1578C131.085 31.2462 131.14 31.3261 131.209 31.3924C131.278 31.4597 131.36 31.5127 131.449 31.5483C131.538 31.584 131.634 31.6017 131.73 31.6004C132.134 31.5729 132.516 31.4053 132.809 31.1265H132.824ZM132.948 31.5856C132.566 31.9924 132.046 32.2409 131.49 32.2819C131.135 32.2916 130.79 32.1606 130.531 31.9175C130.411 31.7993 130.316 31.6572 130.253 31.5002C130.19 31.3433 130.161 31.175 130.167 31.006C130.159 30.7718 130.214 30.5399 130.326 30.3342C130.439 30.1284 130.604 29.9564 130.805 29.8358C131.363 29.5344 131.994 29.3932 132.627 29.4279H132.828V28.8702C132.841 28.7588 132.829 28.6457 132.792 28.5398C132.754 28.434 132.693 28.3381 132.613 28.2598C132.532 28.1815 132.435 28.1227 132.328 28.0882C132.221 28.0537 132.108 28.0442 131.997 28.0607C131.49 28.0787 130.996 28.2202 130.557 28.4728V27.7766C131.06 27.5585 131.601 27.4408 132.15 27.4303C132.565 27.3991 132.977 27.5297 133.298 27.7947C133.431 27.9418 133.532 28.115 133.595 28.3033C133.658 28.4915 133.681 28.6908 133.662 28.8884V30.9625C133.662 31.4436 133.812 31.6913 134.107 31.6913C134.162 31.6955 134.217 31.6955 134.271 31.6913L134.329 32.1542C134.132 32.2472 133.917 32.2946 133.699 32.2929C133.506 32.2947 133.321 32.2221 133.181 32.0902C133.041 31.9584 132.958 31.7776 132.948 31.5856Z" fill="#434345"/>
<path d="M135.371 32.161V27.5356H136.227V32.1758L135.371 32.161ZM135.371 26.6935V25.8594H136.227V26.7015L135.371 26.6935Z" fill="#434345"/>
<path d="M137.896 32.1756V27.5354H138.738V28.4101C138.904 28.1219 139.142 27.8811 139.428 27.7109C139.714 27.5406 140.038 27.4466 140.371 27.4378C140.549 27.4298 140.727 27.4598 140.893 27.5257C141.059 27.5917 141.209 27.6921 141.333 27.8204C141.582 28.1021 141.713 28.469 141.698 28.8447V32.1803H140.856V29.1183C140.874 28.866 140.822 28.6138 140.706 28.389C140.647 28.3134 140.571 28.2538 140.483 28.2156C140.395 28.1775 140.299 28.1619 140.203 28.1704C139.69 28.1704 139.201 28.5086 138.745 29.185V32.1887L137.896 32.1756Z" fill="#434345"/>
<path d="M143.857 29.3533H145.906C145.906 28.4896 145.581 28.0592 144.94 28.0592C144.299 28.0592 143.934 28.4896 143.857 29.3533ZM146.73 32.0251C146.258 32.1782 145.767 32.2636 145.272 32.2788C144.961 32.2904 144.651 32.2356 144.363 32.118C144.075 32.0004 143.816 31.8227 143.602 31.5968C143.383 31.3595 143.213 31.0811 143.101 30.7778C142.99 30.4745 142.94 30.1521 142.954 29.8293C142.925 29.2026 143.129 28.5875 143.526 28.1015C143.701 27.885 143.923 27.7114 144.176 27.5942C144.429 27.477 144.705 27.4191 144.984 27.4251C145.233 27.4117 145.482 27.4591 145.708 27.5634C145.935 27.6676 146.133 27.8254 146.285 28.0233C146.622 28.5233 146.783 29.1206 146.744 29.7219V29.984H143.827C143.949 31.0849 144.488 31.6353 145.446 31.6353C145.889 31.6156 146.325 31.5206 146.736 31.3546L146.73 32.0251Z" fill="#434345"/>
<path d="M10.4922 0.860352H32.6668V23.0894H30.8548C28.4138 23.1159 25.9738 23.1455 23.5328 23.1782L19.6198 23.1888H10.4664V14.0352L14.3938 14.0272V19.1599H28.7588V4.86472H14.3778V9.99998L10.4841 9.99195C10.487 6.94921 10.4897 3.90534 10.4922 0.860352Z" fill="#1679D3"/>
<path fill-rule="evenodd" clip-rule="evenodd" d="M23.5338 23.1778V32.2282H1.37852V9.99023H10.4843L14.3778 9.99827H23.5318V19.1658H19.6378V14.0259H14.3898L10.4623 14.0335H5.29282V28.2898H19.6208V23.1883L23.5338 23.1778Z" fill="#FFD500"/>
</g>
<defs>
<clipPath id="clip0_1_315">
<rect width="146" height="34" fill="white" transform="translate(0.907822)"/>
</clipPath>
</defs>
</svg>
