<svg width="393" height="34" viewBox="0 0 393 34" fill="none" xmlns="http://www.w3.org/2000/svg">
<g clip-path="url(#clip0_34_1546)">
<path d="M30.7539 9.87822H31.2649C31.7119 9.87997 32.1579 9.84433 32.5979 9.77168C32.9979 9.72177 33.3859 9.60306 33.7449 9.4208C34.0979 9.25122 34.3949 8.98257 34.5979 8.64757C34.8329 8.26376 34.9469 7.81745 34.9219 7.36788C34.9429 6.90164 34.8309 6.43914 34.5979 6.0345C34.3959 5.70487 34.0989 5.44459 33.7449 5.28833C33.1959 5.00294 32.5879 4.8506 31.9689 4.84358H30.7559L30.7539 9.87822ZM42.0499 20.9646H35.6659L30.8359 13.2282H30.7559V20.9646H25.5679V0.860352H33.2819C35.3059 0.860352 36.9559 1.35061 38.2329 2.33113C39.5089 3.31165 40.1609 4.88318 40.1879 7.04573C40.2139 8.3559 39.8359 9.64223 39.1039 10.7292C38.3449 11.7777 37.2089 12.4912 35.9359 12.72L42.0499 20.9646Z" fill="#434345"/>
<path d="M53.6812 6.78299H53.6332L51.5442 13.2038H55.7482L53.6812 6.78299ZM50.1302 17.1896L48.7972 20.6778H43.4282L50.9112 0.575195H56.4252L63.7572 20.6778H58.3622L57.0912 17.1896H50.1302Z" fill="#434345"/>
<path d="M81.646 16.2441V20.6873H64.979L74.194 5.01058H66.276V0.567383H82.637L73.47 16.2441H81.646Z" fill="#434345"/>
<path d="M94.622 5.08078C93.903 5.07333 93.19 5.20854 92.525 5.47857C91.859 5.7486 91.253 6.14808 90.743 6.65386C90.231 7.11075 89.822 7.67007 89.541 8.2955C89.26 8.92093 89.114 9.59847 89.112 10.2841C89.089 11.0602 89.222 11.833 89.502 12.5572C89.782 13.2813 90.204 13.9423 90.743 14.5011C91.238 15.0336 91.839 15.4574 92.506 15.7458C93.174 16.0342 93.895 16.1808 94.622 16.1765C95.353 16.1874 96.079 16.0438 96.751 15.7551C97.424 15.4664 98.027 15.0391 98.523 14.5011C99.055 13.9384 99.471 13.2763 99.746 12.5527C100.022 11.8291 100.152 11.0581 100.13 10.2841C100.128 9.6005 99.984 8.92471 99.707 8.29972C99.43 7.67474 99.026 7.11423 98.521 6.65386C98.011 6.14307 97.402 5.74049 96.733 5.47019C96.063 5.1999 95.346 5.06745 94.624 5.08078H94.622ZM94.622 0.0288112C97.386 0.0103679 100.056 1.0263 102.109 2.87694C104.242 4.74018 105.335 7.19894 105.389 10.2533C105.353 13.5119 104.349 16.1424 102.376 18.1449C100.403 20.1474 97.818 21.1738 94.622 21.2243C91.437 21.1888 88.866 20.1623 86.908 18.1449C84.95 16.1275 83.932 13.4969 83.855 10.2533C83.909 7.19584 85.011 4.73708 87.161 2.87694C89.205 1.02859 91.866 0.012797 94.622 0.0288112Z" fill="#434345"/>
<path d="M109.911 0.575195H114.892L118.847 11.3154L123.024 0.575195H128.063L131 20.6778H125.948L124.521 9.10224H124.472L119.794 20.6778H117.789L113.315 9.10224H113.266L111.639 20.6778H106.609L109.911 0.575195Z" fill="#434345"/>
<path d="M27.8118 32.1757V26.5217H25.5698V25.8584H30.9508V26.5293H28.7088V32.1829L27.8118 32.1757Z" fill="#434345"/>
<path d="M33.6811 31.6458C34.5691 31.6458 35.0191 31.048 35.0191 29.8449C35.0191 28.6417 34.5781 28.0625 33.7001 28.0625C32.8211 28.0625 32.3841 28.6603 32.3841 29.8525C32.3841 31.0447 32.8361 31.6458 33.6951 31.6458H33.6811ZM33.6811 32.28C33.3841 32.292 33.0881 32.2393 32.8141 32.1253C32.5401 32.0113 32.2931 31.8389 32.0921 31.62C31.7041 31.1116 31.4941 30.4899 31.4941 29.8504C31.4941 29.2109 31.7041 28.5891 32.0921 28.0807C32.5281 27.6647 33.1071 27.4326 33.7091 27.4326C34.3111 27.4326 34.8901 27.6647 35.3261 28.0807C35.7161 28.5901 35.9281 29.2142 35.9281 29.8563C35.9281 30.4983 35.7161 31.1225 35.3261 31.6319C35.1141 31.8514 34.8581 32.0229 34.5741 32.1349C34.2901 32.2469 33.9861 32.2958 33.6811 32.28Z" fill="#434345"/>
<path d="M40.216 30.5684V28.6402C40.066 28.4657 39.8809 28.3243 39.6739 28.2251C39.4659 28.1259 39.2399 28.071 39.0099 28.0639C38.8309 28.0579 38.653 28.0975 38.494 28.1788C38.335 28.2601 38.198 28.3806 38.098 28.529C37.86 28.9104 37.746 29.3559 37.77 29.8049C37.77 30.8229 38.1269 31.332 38.8419 31.3323C39.1139 31.3153 39.3779 31.2378 39.6159 31.1053C39.8539 30.9728 40.059 30.7888 40.216 30.5667V30.5684ZM37.257 33.7179L37.356 32.9887C37.804 33.2098 38.2959 33.3281 38.7949 33.3349C39.7429 33.3349 40.2169 32.832 40.2169 31.8261V31.0968C40.0929 31.396 39.8799 31.6498 39.6069 31.8237C39.3329 31.9977 39.013 32.0834 38.69 32.0692C38.437 32.0795 38.1849 32.0301 37.9539 31.925C37.7239 31.8199 37.521 31.662 37.363 31.4642C37.017 30.991 36.8439 30.4131 36.8739 29.8277C36.8459 29.2045 37.044 28.5921 37.432 28.1033C37.608 27.8884 37.8309 27.7166 38.0839 27.601C38.3369 27.4854 38.6119 27.429 38.8899 27.4361C39.1459 27.4361 39.399 27.4926 39.63 27.6016C39.861 27.7107 40.0659 27.8696 40.2279 28.0669V27.5346H41.074V30.9104C41.089 31.4498 41.0509 31.9894 40.9609 32.5215C40.9019 32.8408 40.7559 33.1374 40.5379 33.378C40.3089 33.5888 40.0379 33.7498 39.7429 33.8508C39.4479 33.9518 39.1359 33.9906 38.8249 33.9648C38.2919 33.9682 37.7619 33.8848 37.2559 33.7179H37.257Z" fill="#434345"/>
<path d="M43.2241 29.3534H45.2731C45.2731 28.4897 44.9481 28.0593 44.3071 28.0593C43.6651 28.0593 43.3001 28.4897 43.2241 29.3534ZM46.0961 32.0252C45.6251 32.1785 45.1341 32.2639 44.6381 32.2789C44.3271 32.2909 44.0161 32.2363 43.7281 32.1187C43.4391 32.0011 43.1791 31.8232 42.9651 31.597C42.7451 31.3606 42.5741 31.083 42.4621 30.7804C42.3501 30.4777 42.2991 30.1558 42.3111 29.8332C42.2831 29.2065 42.4871 28.5914 42.8841 28.1054C43.0591 27.8888 43.2811 27.7152 43.5341 27.5979C43.7871 27.4807 44.0631 27.4229 44.3421 27.429C44.5911 27.4156 44.8391 27.463 45.0661 27.5672C45.2931 27.6715 45.4911 27.8293 45.6431 28.0272C45.9791 28.5271 46.1411 29.1244 46.1021 29.7258V29.9879H43.1851C43.3041 31.0888 43.8431 31.6392 44.8041 31.6392C45.2471 31.6195 45.6831 31.5246 46.0941 31.3585L46.0961 32.0252Z" fill="#434345"/>
<path d="M48.9601 32.2807C48.7781 32.2914 48.5951 32.2647 48.4231 32.202C48.2511 32.1393 48.0941 32.042 47.9621 31.9162C47.8351 31.7793 47.7381 31.6184 47.6761 31.4431C47.6131 31.2677 47.5861 31.0816 47.5971 30.8957V28.1689H47.0181V27.5348H47.5971V26.6926L48.4391 26.6123V27.5348H49.6531V28.1651H48.4401V30.7389C48.4401 31.344 48.7021 31.6465 49.2271 31.6465C49.3641 31.6432 49.5001 31.6248 49.6321 31.5916V32.175C49.4131 32.2385 49.1881 32.274 48.9601 32.2807Z" fill="#434345"/>
<path d="M50.8418 32.175V25.4277H51.6838V28.4095C51.8488 28.1212 52.0858 27.8803 52.3708 27.71C52.6558 27.5397 52.9808 27.4457 53.3128 27.4371C53.4908 27.4291 53.6688 27.459 53.8348 27.525C54.0008 27.591 54.1508 27.6914 54.2748 27.8197C54.5268 28.1001 54.6578 28.468 54.6398 28.844V32.1792H53.8018V29.1176C53.8198 28.8649 53.7668 28.6122 53.6488 28.3883C53.5898 28.3127 53.5128 28.2531 53.4248 28.215C53.3368 28.1768 53.2408 28.1612 53.1448 28.1697C52.6318 28.1697 52.1458 28.508 51.6868 29.1844V32.186L50.8418 32.175Z" fill="#434345"/>
<path d="M56.8019 29.3533H58.8469C58.8469 28.4906 58.5249 28.0592 57.8809 28.0592C57.2369 28.0592 56.8769 28.4906 56.8019 29.3533ZM59.6709 32.0251C59.1989 32.1784 58.7079 32.2638 58.2129 32.2788C57.9009 32.2908 57.5909 32.2361 57.3019 32.1185C57.0139 32.0009 56.7539 31.8231 56.5389 31.5969C56.0979 31.1167 55.8649 30.4811 55.8909 29.8293C55.8649 29.203 56.0689 28.5889 56.4629 28.1015C56.6379 27.885 56.8609 27.7115 57.1129 27.5942C57.3659 27.477 57.6419 27.4191 57.9209 27.4251C58.1699 27.4117 58.4189 27.4591 58.6449 27.5633C58.8719 27.6676 59.0699 27.8254 59.2219 28.0233C59.5589 28.5232 59.7199 29.1205 59.6819 29.7219V29.984H56.7649C56.8879 31.0849 57.4279 31.6353 58.3829 31.6353C58.8259 31.6156 59.2619 31.5206 59.6739 31.3546L59.6709 32.0251Z" fill="#434345"/>
<path d="M61.1431 32.1744V27.5342H61.9961V28.4089C62.1151 28.1206 62.3181 27.8744 62.5771 27.7013C62.8371 27.5282 63.1421 27.436 63.4541 27.4365C63.5431 27.4369 63.6321 27.4442 63.7201 27.4585V28.2419C63.5971 28.1981 63.4691 28.1736 63.3391 28.1692C62.8071 28.1692 62.3611 28.4851 62.0021 29.117V32.179L61.1431 32.1744Z" fill="#434345"/>
<path d="M68.2872 32.1757L66.6582 25.8584H67.5222L68.8162 30.8525L70.0152 25.8584H70.8792L72.0062 30.7831L73.3912 25.8584H74.1202L72.3482 32.1829H71.4732L70.3402 27.3165L69.1732 32.1939L68.2872 32.1757Z" fill="#434345"/>
<path d="M75.5059 29.3533H77.5509C77.5509 28.4906 77.2299 28.0592 76.5879 28.0592C75.9469 28.0592 75.5859 28.4906 75.5059 29.3533ZM78.3779 32.0251C77.9069 32.1782 77.4159 32.2636 76.9199 32.2788C76.6089 32.2904 76.2999 32.2356 76.0119 32.118C75.7239 32.0004 75.4649 31.8228 75.2509 31.5969C75.0309 31.3595 74.8609 31.0812 74.7499 30.7779C74.6389 30.4745 74.5879 30.1522 74.6019 29.8293C74.5759 29.2035 74.7779 28.5895 75.1699 28.1015C75.3459 27.885 75.5679 27.7115 75.8209 27.5942C76.0739 27.477 76.3499 27.4191 76.6289 27.4251C76.8779 27.4117 77.1259 27.4591 77.3529 27.5633C77.5799 27.6676 77.7779 27.8254 77.9299 28.0233C78.2659 28.5232 78.4279 29.1205 78.3889 29.7219V29.984H75.4719C75.5939 31.0849 76.1329 31.6353 77.0909 31.6353C77.5339 31.6156 77.9699 31.5206 78.3809 31.3546L78.3779 32.0251Z" fill="#434345"/>
<path d="M85.7972 29.755L84.7042 27.0324L83.6102 29.755H85.7972ZM86.7452 32.1757L86.0562 30.4221H83.3772L82.6812 32.1757H81.8462L84.3572 25.8584H85.2452L87.7132 32.1829L86.7452 32.1757Z" fill="#434345"/>
<path d="M88.6538 32.1744V27.5342H89.4958V28.4089C89.6148 28.1201 89.8168 27.8733 90.0768 27.7001C90.3368 27.5268 90.6418 27.4351 90.9548 27.4365C91.0448 27.4367 91.1348 27.444 91.2238 27.4585V28.2423C91.1008 28.1985 90.9718 28.1738 90.8418 28.1692C90.3088 28.1692 89.8608 28.4863 89.5038 29.117V32.1791L88.6538 32.1744Z" fill="#434345"/>
<path d="M92.7651 29.3532H94.8031C94.8031 28.4905 94.4811 28.0592 93.8371 28.0592C93.1931 28.0592 92.8361 28.4905 92.7651 29.3532ZM95.6341 32.0251C95.1621 32.1783 94.6711 32.2637 94.1761 32.2787C93.8641 32.2908 93.5541 32.2362 93.2651 32.1186C92.9771 32.001 92.7171 31.8231 92.5031 31.5968C92.0611 31.1165 91.8281 30.4811 91.8541 29.8293C91.8291 29.203 92.0321 28.5889 92.4261 28.1015C92.6011 27.8848 92.8241 27.7113 93.0771 27.594C93.3291 27.4767 93.6061 27.419 93.8841 27.425C94.1331 27.4117 94.3821 27.4592 94.6091 27.5634C94.8351 27.6677 95.0331 27.8255 95.1851 28.0232C95.5221 28.5231 95.6831 29.1205 95.6451 29.7219V29.984H92.7271C92.8511 31.0849 93.3911 31.6353 94.3461 31.6353C94.7891 31.6156 95.2251 31.5207 95.6361 31.3546L95.6341 32.0251Z" fill="#434345"/>
<path d="M99.8 25.8594H100.697V29.8511C100.659 30.3405 100.788 30.8284 101.061 31.236C101.203 31.3891 101.378 31.5078 101.572 31.583C101.767 31.6582 101.976 31.6879 102.184 31.6698C102.381 31.6904 102.58 31.6642 102.765 31.5933C102.95 31.5224 103.115 31.4088 103.248 31.2618C103.494 30.8413 103.6 30.3538 103.551 29.8692V25.8594H104.335V29.8692C104.393 30.5413 104.203 31.2115 103.802 31.7539C103.579 31.9671 103.312 32.1302 103.021 32.2323C102.729 32.3344 102.419 32.373 102.111 32.3458C101.793 32.3727 101.473 32.332 101.171 32.2265C100.87 32.1211 100.594 31.9531 100.362 31.7336C99.944 31.197 99.744 30.5228 99.801 29.8451L99.8 25.8594Z" fill="#434345"/>
<path d="M105.939 32.175V25.4277H106.778V29.7838L108.746 27.5348H109.65L107.773 29.6997L110.04 32.175H108.947L106.76 29.7944V32.175H105.939Z" fill="#434345"/>
<path d="M111.051 32.1744V27.5342H111.892V28.4089C112.012 28.1206 112.214 27.8744 112.474 27.7013C112.733 27.5282 113.039 27.436 113.351 27.4365C113.44 27.4369 113.529 27.4442 113.617 27.4585V28.2419C113.494 28.1979 113.365 28.1734 113.234 28.1692C112.702 28.1692 112.256 28.4851 111.896 29.117V32.179L111.051 32.1744Z" fill="#434345"/>
<path d="M116.916 31.1265V29.9271H116.632C116.241 29.9099 115.854 30.0007 115.512 30.1897C115.386 30.255 115.279 30.3536 115.204 30.4749C115.129 30.5962 115.088 30.7357 115.086 30.8783C115.085 30.9742 115.103 31.0694 115.14 31.1578C115.177 31.2462 115.232 31.3261 115.301 31.3924C115.37 31.4597 115.452 31.5127 115.541 31.5483C115.63 31.584 115.726 31.6017 115.822 31.6004C116.226 31.5729 116.608 31.4053 116.901 31.1265H116.916ZM117.04 31.5856C116.658 31.9924 116.138 32.2409 115.582 32.2819C115.227 32.2916 114.882 32.1606 114.623 31.9175C114.503 31.7993 114.408 31.6572 114.345 31.5002C114.282 31.3433 114.253 31.175 114.259 31.006C114.251 30.7718 114.306 30.5399 114.418 30.3342C114.531 30.1284 114.696 29.9564 114.897 29.8358C115.455 29.5344 116.086 29.3932 116.719 29.4279H116.92V28.8702C116.933 28.7588 116.921 28.6457 116.884 28.5398C116.846 28.434 116.785 28.3381 116.705 28.2598C116.624 28.1815 116.527 28.1227 116.42 28.0882C116.313 28.0537 116.2 28.0442 116.089 28.0607C115.582 28.0787 115.088 28.2202 114.649 28.4728V27.7766C115.152 27.5585 115.693 27.4408 116.242 27.4303C116.657 27.3991 117.069 27.5297 117.39 27.7947C117.523 27.9418 117.624 28.115 117.687 28.3033C117.75 28.4915 117.773 28.6908 117.754 28.8884V30.9625C117.754 31.4436 117.904 31.6913 118.199 31.6913C118.254 31.6955 118.309 31.6955 118.363 31.6913L118.421 32.1542C118.224 32.2472 118.009 32.2946 117.791 32.2929C117.598 32.2947 117.413 32.2221 117.273 32.0902C117.133 31.9584 117.05 31.7776 117.04 31.5856Z" fill="#434345"/>
<path d="M119.463 32.161V27.5356H120.319V32.1758L119.463 32.161ZM119.463 26.6935V25.8594H120.319V26.7015L119.463 26.6935Z" fill="#434345"/>
<path d="M121.988 32.1756V27.5354H122.83V28.4101C122.996 28.1219 123.234 27.8811 123.52 27.7109C123.806 27.5406 124.13 27.4466 124.463 27.4378C124.641 27.4298 124.819 27.4598 124.985 27.5257C125.151 27.5917 125.301 27.6921 125.425 27.8204C125.674 28.1021 125.805 28.469 125.79 28.8447V32.1803H124.948V29.1183C124.966 28.866 124.914 28.6138 124.798 28.389C124.739 28.3134 124.663 28.2538 124.575 28.2156C124.487 28.1775 124.391 28.1619 124.295 28.1704C123.782 28.1704 123.293 28.5086 122.837 29.185V32.1887L121.988 32.1756Z" fill="#434345"/>
<path d="M127.949 29.3533H129.998C129.998 28.4896 129.673 28.0592 129.032 28.0592C128.391 28.0592 128.026 28.4896 127.949 29.3533ZM130.822 32.0251C130.35 32.1782 129.859 32.2636 129.364 32.2788C129.053 32.2904 128.743 32.2356 128.455 32.118C128.167 32.0004 127.908 31.8227 127.694 31.5968C127.475 31.3595 127.305 31.0811 127.193 30.7778C127.082 30.4745 127.032 30.1521 127.046 29.8293C127.017 29.2026 127.221 28.5875 127.618 28.1015C127.793 27.885 128.015 27.7114 128.268 27.5942C128.521 27.477 128.797 27.4191 129.076 27.4251C129.325 27.4117 129.574 27.4591 129.8 27.5634C130.027 27.6676 130.225 27.8254 130.377 28.0233C130.714 28.5233 130.875 29.1206 130.836 29.7219V29.984H127.919C128.041 31.0849 128.58 31.6353 129.538 31.6353C129.981 31.6156 130.417 31.5206 130.828 31.3546L130.822 32.0251Z" fill="#434345"/>
<path d="M-5.41561 0.860352H16.759V23.0894H14.947C12.506 23.1159 10.066 23.1455 7.62499 23.1782L3.71199 23.1888H-5.44141V14.0352L-1.51401 14.0272V19.1599H12.851V4.86472H-1.53001V9.99998L-5.42371 9.99195C-5.42081 6.94921 -5.41811 3.90534 -5.41561 0.860352Z" fill="#1679D3"/>
<path fill-rule="evenodd" clip-rule="evenodd" d="M7.626 23.1778V32.2282H-14.5293V9.99023H-5.4235L-1.53 9.99827H7.624V19.1658H3.73V14.0259H-1.518L-5.4455 14.0335H-10.615V28.2898H3.713V23.1883L7.626 23.1778Z" fill="#FFD500"/>
</g>
<g clip-path="url(#clip1_34_1546)">
<path d="M203.754 9.87822H204.265C204.712 9.87997 205.158 9.84433 205.598 9.77168C205.998 9.72177 206.386 9.60306 206.745 9.4208C207.098 9.25122 207.395 8.98257 207.598 8.64757C207.833 8.26376 207.947 7.81745 207.922 7.36788C207.943 6.90164 207.831 6.43914 207.598 6.0345C207.396 5.70487 207.099 5.44459 206.745 5.28833C206.196 5.00294 205.588 4.8506 204.969 4.84358H203.756L203.754 9.87822ZM215.05 20.9646H208.666L203.836 13.2282H203.756V20.9646H198.568V0.860352H206.282C208.306 0.860352 209.956 1.35061 211.233 2.33113C212.509 3.31165 213.161 4.88318 213.188 7.04573C213.214 8.3559 212.836 9.64223 212.104 10.7292C211.345 11.7777 210.209 12.4912 208.936 12.72L215.05 20.9646Z" fill="#434345"/>
<path d="M226.681 6.78299H226.633L224.544 13.2038H228.748L226.681 6.78299ZM223.13 17.1896L221.797 20.6778H216.428L223.911 0.575195H229.425L236.757 20.6778H231.362L230.091 17.1896H223.13Z" fill="#434345"/>
<path d="M254.646 16.2441V20.6873H237.979L247.194 5.01058H239.276V0.567383H255.637L246.47 16.2441H254.646Z" fill="#434345"/>
<path d="M267.622 5.08078C266.903 5.07333 266.19 5.20854 265.525 5.47857C264.859 5.7486 264.253 6.14808 263.743 6.65386C263.231 7.11075 262.822 7.67007 262.541 8.2955C262.26 8.92093 262.114 9.59847 262.112 10.2841C262.089 11.0602 262.222 11.833 262.502 12.5572C262.782 13.2813 263.204 13.9423 263.743 14.5011C264.238 15.0336 264.839 15.4574 265.506 15.7458C266.174 16.0342 266.895 16.1808 267.622 16.1765C268.353 16.1874 269.079 16.0438 269.751 15.7551C270.424 15.4664 271.027 15.0391 271.523 14.5011C272.055 13.9384 272.471 13.2763 272.746 12.5527C273.022 11.8291 273.152 11.0581 273.13 10.2841C273.128 9.6005 272.984 8.92471 272.707 8.29972C272.43 7.67474 272.026 7.11423 271.521 6.65386C271.011 6.14307 270.402 5.74049 269.733 5.47019C269.063 5.1999 268.346 5.06745 267.624 5.08078H267.622ZM267.622 0.0288112C270.386 0.0103679 273.056 1.0263 275.109 2.87694C277.242 4.74018 278.335 7.19894 278.389 10.2533C278.353 13.5119 277.349 16.1424 275.376 18.1449C273.403 20.1474 270.818 21.1738 267.622 21.2243C264.437 21.1888 261.866 20.1623 259.908 18.1449C257.95 16.1275 256.932 13.4969 256.855 10.2533C256.909 7.19584 258.011 4.73708 260.161 2.87694C262.205 1.02859 264.866 0.012797 267.622 0.0288112Z" fill="#434345"/>
<path d="M282.911 0.575195H287.892L291.847 11.3154L296.024 0.575195H301.063L304 20.6778H298.948L297.521 9.10224H297.472L292.794 20.6778H290.789L286.315 9.10224H286.266L284.639 20.6778H279.609L282.911 0.575195Z" fill="#434345"/>
<path d="M200.812 32.1757V26.5217H198.57V25.8584H203.951V26.5293H201.709V32.1829L200.812 32.1757Z" fill="#434345"/>
<path d="M206.681 31.6458C207.569 31.6458 208.019 31.048 208.019 29.8449C208.019 28.6417 207.578 28.0625 206.7 28.0625C205.821 28.0625 205.384 28.6603 205.384 29.8525C205.384 31.0447 205.836 31.6458 206.695 31.6458H206.681ZM206.681 32.28C206.384 32.292 206.088 32.2393 205.814 32.1253C205.54 32.0113 205.293 31.8389 205.092 31.62C204.704 31.1116 204.494 30.4899 204.494 29.8504C204.494 29.2109 204.704 28.5891 205.092 28.0807C205.528 27.6647 206.107 27.4326 206.709 27.4326C207.311 27.4326 207.89 27.6647 208.326 28.0807C208.716 28.5901 208.928 29.2142 208.928 29.8563C208.928 30.4983 208.716 31.1225 208.326 31.6319C208.114 31.8514 207.858 32.0229 207.574 32.1349C207.29 32.2469 206.986 32.2958 206.681 32.28Z" fill="#434345"/>
<path d="M213.216 30.5684V28.6402C213.066 28.4657 212.881 28.3243 212.674 28.2251C212.466 28.1259 212.24 28.071 212.01 28.0639C211.831 28.0579 211.653 28.0975 211.494 28.1788C211.335 28.2601 211.198 28.3806 211.098 28.529C210.86 28.9104 210.746 29.3559 210.77 29.8049C210.77 30.8229 211.127 31.332 211.842 31.3323C212.114 31.3153 212.378 31.2378 212.616 31.1053C212.854 30.9728 213.059 30.7888 213.216 30.5667V30.5684ZM210.257 33.7179L210.356 32.9887C210.804 33.2098 211.296 33.3281 211.795 33.3349C212.743 33.3349 213.217 32.832 213.217 31.8261V31.0968C213.093 31.396 212.88 31.6498 212.607 31.8237C212.333 31.9977 212.013 32.0834 211.69 32.0692C211.437 32.0795 211.185 32.0301 210.954 31.925C210.724 31.8199 210.521 31.662 210.363 31.4642C210.017 30.991 209.844 30.4131 209.874 29.8277C209.846 29.2045 210.044 28.5921 210.432 28.1033C210.608 27.8884 210.831 27.7166 211.084 27.601C211.337 27.4854 211.612 27.429 211.89 27.4361C212.146 27.4361 212.399 27.4926 212.63 27.6016C212.861 27.7107 213.066 27.8696 213.228 28.0669V27.5346H214.074V30.9104C214.089 31.4498 214.051 31.9894 213.961 32.5215C213.902 32.8408 213.756 33.1374 213.538 33.378C213.309 33.5888 213.038 33.7498 212.743 33.8508C212.448 33.9518 212.136 33.9906 211.825 33.9648C211.292 33.9682 210.762 33.8848 210.256 33.7179H210.257Z" fill="#434345"/>
<path d="M216.224 29.3534H218.273C218.273 28.4897 217.948 28.0593 217.307 28.0593C216.665 28.0593 216.3 28.4897 216.224 29.3534ZM219.096 32.0252C218.625 32.1785 218.134 32.2639 217.638 32.2789C217.327 32.2909 217.016 32.2363 216.728 32.1187C216.439 32.0011 216.179 31.8232 215.965 31.597C215.745 31.3606 215.574 31.083 215.462 30.7804C215.35 30.4777 215.299 30.1558 215.311 29.8332C215.283 29.2065 215.487 28.5914 215.884 28.1054C216.059 27.8888 216.281 27.7152 216.534 27.5979C216.787 27.4807 217.063 27.4229 217.342 27.429C217.591 27.4156 217.839 27.463 218.066 27.5672C218.293 27.6715 218.491 27.8293 218.643 28.0272C218.979 28.5271 219.141 29.1244 219.102 29.7258V29.9879H216.185C216.304 31.0888 216.843 31.6392 217.804 31.6392C218.247 31.6195 218.683 31.5246 219.094 31.3585L219.096 32.0252Z" fill="#434345"/>
<path d="M221.96 32.2807C221.778 32.2914 221.595 32.2647 221.423 32.202C221.251 32.1393 221.094 32.042 220.962 31.9162C220.835 31.7793 220.738 31.6184 220.676 31.4431C220.613 31.2677 220.586 31.0816 220.597 30.8957V28.1689H220.018V27.5348H220.597V26.6926L221.439 26.6123V27.5348H222.653V28.1651H221.44V30.7389C221.44 31.344 221.702 31.6465 222.227 31.6465C222.364 31.6432 222.5 31.6248 222.632 31.5916V32.175C222.413 32.2385 222.188 32.274 221.96 32.2807Z" fill="#434345"/>
<path d="M223.842 32.175V25.4277H224.684V28.4095C224.849 28.1212 225.086 27.8803 225.371 27.71C225.656 27.5397 225.981 27.4457 226.313 27.4371C226.491 27.4291 226.669 27.459 226.835 27.525C227.001 27.591 227.151 27.6914 227.275 27.8197C227.527 28.1001 227.658 28.468 227.64 28.844V32.1792H226.802V29.1176C226.82 28.8649 226.767 28.6122 226.649 28.3883C226.59 28.3127 226.513 28.2531 226.425 28.215C226.337 28.1768 226.241 28.1612 226.145 28.1697C225.632 28.1697 225.146 28.508 224.687 29.1844V32.186L223.842 32.175Z" fill="#434345"/>
<path d="M229.802 29.3533H231.847C231.847 28.4906 231.525 28.0592 230.881 28.0592C230.237 28.0592 229.877 28.4906 229.802 29.3533ZM232.671 32.0251C232.199 32.1784 231.708 32.2638 231.213 32.2788C230.901 32.2908 230.591 32.2361 230.302 32.1185C230.014 32.0009 229.754 31.8231 229.539 31.5969C229.098 31.1167 228.865 30.4811 228.891 29.8293C228.865 29.203 229.069 28.5889 229.463 28.1015C229.638 27.885 229.861 27.7115 230.113 27.5942C230.366 27.477 230.642 27.4191 230.921 27.4251C231.17 27.4117 231.419 27.4591 231.645 27.5633C231.872 27.6676 232.07 27.8254 232.222 28.0233C232.559 28.5232 232.72 29.1205 232.682 29.7219V29.984H229.765C229.888 31.0849 230.428 31.6353 231.383 31.6353C231.826 31.6156 232.262 31.5206 232.674 31.3546L232.671 32.0251Z" fill="#434345"/>
<path d="M234.143 32.1744V27.5342H234.996V28.4089C235.115 28.1206 235.318 27.8744 235.577 27.7013C235.837 27.5282 236.142 27.436 236.454 27.4365C236.543 27.4369 236.632 27.4442 236.72 27.4585V28.2419C236.597 28.1981 236.469 28.1736 236.339 28.1692C235.807 28.1692 235.361 28.4851 235.002 29.117V32.179L234.143 32.1744Z" fill="#434345"/>
<path d="M241.287 32.1757L239.658 25.8584H240.522L241.816 30.8525L243.015 25.8584H243.879L245.006 30.7831L246.391 25.8584H247.12L245.348 32.1829H244.473L243.34 27.3165L242.173 32.1939L241.287 32.1757Z" fill="#434345"/>
<path d="M248.506 29.3533H250.551C250.551 28.4906 250.23 28.0592 249.588 28.0592C248.947 28.0592 248.586 28.4906 248.506 29.3533ZM251.378 32.0251C250.907 32.1782 250.416 32.2636 249.92 32.2788C249.609 32.2904 249.3 32.2356 249.012 32.118C248.724 32.0004 248.465 31.8228 248.251 31.5969C248.031 31.3595 247.861 31.0812 247.75 30.7779C247.639 30.4745 247.588 30.1522 247.602 29.8293C247.576 29.2035 247.778 28.5895 248.17 28.1015C248.346 27.885 248.568 27.7115 248.821 27.5942C249.074 27.477 249.35 27.4191 249.629 27.4251C249.878 27.4117 250.126 27.4591 250.353 27.5633C250.58 27.6676 250.778 27.8254 250.93 28.0233C251.266 28.5232 251.428 29.1205 251.389 29.7219V29.984H248.472C248.594 31.0849 249.133 31.6353 250.091 31.6353C250.534 31.6156 250.97 31.5206 251.381 31.3546L251.378 32.0251Z" fill="#434345"/>
<path d="M258.797 29.755L257.704 27.0324L256.61 29.755H258.797ZM259.745 32.1757L259.056 30.4221H256.377L255.681 32.1757H254.846L257.357 25.8584H258.245L260.713 32.1829L259.745 32.1757Z" fill="#434345"/>
<path d="M261.654 32.1744V27.5342H262.496V28.4089C262.615 28.1201 262.817 27.8733 263.077 27.7001C263.337 27.5268 263.642 27.4351 263.955 27.4365C264.045 27.4367 264.135 27.444 264.224 27.4585V28.2423C264.101 28.1985 263.972 28.1738 263.842 28.1692C263.309 28.1692 262.861 28.4863 262.504 29.117V32.1791L261.654 32.1744Z" fill="#434345"/>
<path d="M265.765 29.3532H267.803C267.803 28.4905 267.481 28.0592 266.837 28.0592C266.193 28.0592 265.836 28.4905 265.765 29.3532ZM268.634 32.0251C268.162 32.1783 267.671 32.2637 267.176 32.2787C266.864 32.2908 266.554 32.2362 266.265 32.1186C265.977 32.001 265.717 31.8231 265.503 31.5968C265.061 31.1165 264.828 30.4811 264.854 29.8293C264.829 29.203 265.032 28.5889 265.426 28.1015C265.601 27.8848 265.824 27.7113 266.077 27.594C266.329 27.4767 266.606 27.419 266.884 27.425C267.133 27.4117 267.382 27.4592 267.609 27.5634C267.835 27.6677 268.033 27.8255 268.185 28.0232C268.522 28.5231 268.683 29.1205 268.645 29.7219V29.984H265.727C265.851 31.0849 266.391 31.6353 267.346 31.6353C267.789 31.6156 268.225 31.5207 268.636 31.3546L268.634 32.0251Z" fill="#434345"/>
<path d="M272.8 25.8594H273.697V29.8511C273.659 30.3405 273.788 30.8284 274.061 31.236C274.203 31.3891 274.378 31.5078 274.572 31.583C274.767 31.6582 274.976 31.6879 275.184 31.6698C275.381 31.6904 275.58 31.6642 275.765 31.5933C275.95 31.5224 276.115 31.4088 276.248 31.2618C276.494 30.8413 276.6 30.3538 276.551 29.8692V25.8594H277.335V29.8692C277.393 30.5413 277.203 31.2115 276.802 31.7539C276.579 31.9671 276.312 32.1302 276.021 32.2323C275.729 32.3344 275.419 32.373 275.111 32.3458C274.793 32.3727 274.473 32.332 274.171 32.2265C273.87 32.1211 273.594 31.9531 273.362 31.7336C272.944 31.197 272.744 30.5228 272.801 29.8451L272.8 25.8594Z" fill="#434345"/>
<path d="M278.939 32.175V25.4277H279.778V29.7838L281.746 27.5348H282.65L280.773 29.6997L283.04 32.175H281.947L279.76 29.7944V32.175H278.939Z" fill="#434345"/>
<path d="M284.051 32.1744V27.5342H284.892V28.4089C285.012 28.1206 285.214 27.8744 285.474 27.7013C285.733 27.5282 286.039 27.436 286.351 27.4365C286.44 27.4369 286.529 27.4442 286.617 27.4585V28.2419C286.494 28.1979 286.365 28.1734 286.234 28.1692C285.702 28.1692 285.256 28.4851 284.896 29.117V32.179L284.051 32.1744Z" fill="#434345"/>
<path d="M289.916 31.1265V29.9271H289.632C289.241 29.9099 288.854 30.0007 288.512 30.1897C288.386 30.255 288.279 30.3536 288.204 30.4749C288.129 30.5962 288.088 30.7357 288.086 30.8783C288.085 30.9742 288.103 31.0694 288.14 31.1578C288.177 31.2462 288.232 31.3261 288.301 31.3924C288.37 31.4597 288.452 31.5127 288.541 31.5483C288.63 31.584 288.726 31.6017 288.822 31.6004C289.226 31.5729 289.608 31.4053 289.901 31.1265H289.916ZM290.04 31.5856C289.658 31.9924 289.138 32.2409 288.582 32.2819C288.227 32.2916 287.882 32.1606 287.623 31.9175C287.503 31.7993 287.408 31.6572 287.345 31.5002C287.282 31.3433 287.253 31.175 287.259 31.006C287.251 30.7718 287.306 30.5399 287.418 30.3342C287.531 30.1284 287.696 29.9564 287.897 29.8358C288.455 29.5344 289.086 29.3932 289.719 29.4279H289.92V28.8702C289.933 28.7588 289.921 28.6457 289.884 28.5398C289.846 28.434 289.785 28.3381 289.705 28.2598C289.624 28.1815 289.527 28.1227 289.42 28.0882C289.313 28.0537 289.2 28.0442 289.089 28.0607C288.582 28.0787 288.088 28.2202 287.649 28.4728V27.7766C288.152 27.5585 288.693 27.4408 289.242 27.4303C289.657 27.3991 290.069 27.5297 290.39 27.7947C290.523 27.9418 290.624 28.115 290.687 28.3033C290.75 28.4915 290.773 28.6908 290.754 28.8884V30.9625C290.754 31.4436 290.904 31.6913 291.199 31.6913C291.254 31.6955 291.309 31.6955 291.363 31.6913L291.421 32.1542C291.224 32.2472 291.009 32.2946 290.791 32.2929C290.598 32.2947 290.413 32.2221 290.273 32.0902C290.133 31.9584 290.05 31.7776 290.04 31.5856Z" fill="#434345"/>
<path d="M292.463 32.161V27.5356H293.319V32.1758L292.463 32.161ZM292.463 26.6935V25.8594H293.319V26.7015L292.463 26.6935Z" fill="#434345"/>
<path d="M294.988 32.1756V27.5354H295.83V28.4101C295.996 28.1219 296.234 27.8811 296.52 27.7109C296.806 27.5406 297.13 27.4466 297.463 27.4378C297.641 27.4298 297.819 27.4598 297.985 27.5257C298.151 27.5917 298.301 27.6921 298.425 27.8204C298.674 28.1021 298.805 28.469 298.79 28.8447V32.1803H297.948V29.1183C297.966 28.866 297.914 28.6138 297.798 28.389C297.739 28.3134 297.663 28.2538 297.575 28.2156C297.487 28.1775 297.391 28.1619 297.295 28.1704C296.782 28.1704 296.293 28.5086 295.837 29.185V32.1887L294.988 32.1756Z" fill="#434345"/>
<path d="M300.949 29.3533H302.998C302.998 28.4896 302.673 28.0592 302.032 28.0592C301.391 28.0592 301.026 28.4896 300.949 29.3533ZM303.822 32.0251C303.35 32.1782 302.859 32.2636 302.364 32.2788C302.053 32.2904 301.743 32.2356 301.455 32.118C301.167 32.0004 300.908 31.8227 300.694 31.5968C300.475 31.3595 300.305 31.0811 300.193 30.7778C300.082 30.4745 300.032 30.1521 300.046 29.8293C300.017 29.2026 300.221 28.5875 300.618 28.1015C300.793 27.885 301.015 27.7114 301.268 27.5942C301.521 27.477 301.797 27.4191 302.076 27.4251C302.325 27.4117 302.574 27.4591 302.8 27.5634C303.027 27.6676 303.225 27.8254 303.377 28.0233C303.714 28.5233 303.875 29.1206 303.836 29.7219V29.984H300.919C301.041 31.0849 301.58 31.6353 302.538 31.6353C302.981 31.6156 303.417 31.5206 303.828 31.3546L303.822 32.0251Z" fill="#434345"/>
<path d="M167.584 0.860352H189.759V23.0894H187.947C185.506 23.1159 183.066 23.1455 180.625 23.1782L176.712 23.1888H167.559V14.0352L171.486 14.0272V19.1599H185.851V4.86472H171.47V9.99998L167.576 9.99195C167.579 6.94921 167.582 3.90534 167.584 0.860352Z" fill="#1679D3"/>
<path fill-rule="evenodd" clip-rule="evenodd" d="M180.626 23.1778V32.2282H158.471V9.99023H167.576L171.47 9.99827H180.624V19.1658H176.73V14.0259H171.482L167.554 14.0335H162.385V28.2898H176.713V23.1883L180.626 23.1778Z" fill="#FFD500"/>
</g>
<g clip-path="url(#clip2_34_1546)">
<path d="M376.754 9.87822H377.265C377.712 9.87997 378.158 9.84433 378.598 9.77168C378.998 9.72177 379.386 9.60306 379.745 9.4208C380.098 9.25122 380.395 8.98257 380.598 8.64757C380.833 8.26376 380.947 7.81745 380.922 7.36788C380.943 6.90164 380.831 6.43914 380.598 6.0345C380.396 5.70487 380.099 5.44459 379.745 5.28833C379.196 5.00294 378.588 4.8506 377.969 4.84358H376.756L376.754 9.87822ZM388.05 20.9646H381.666L376.836 13.2282H376.756V20.9646H371.568V0.860352H379.282C381.306 0.860352 382.956 1.35061 384.233 2.33113C385.509 3.31165 386.161 4.88318 386.188 7.04573C386.214 8.3559 385.836 9.64223 385.104 10.7292C384.345 11.7777 383.209 12.4912 381.936 12.72L388.05 20.9646Z" fill="#434345"/>
<path d="M399.681 6.78299H399.633L397.544 13.2038H401.748L399.681 6.78299ZM396.13 17.1896L394.797 20.6778H389.428L396.911 0.575195H402.425L409.757 20.6778H404.362L403.091 17.1896H396.13Z" fill="#434345"/>
<path d="M373.812 32.1757V26.5217H371.57V25.8584H376.951V26.5293H374.709V32.1829L373.812 32.1757Z" fill="#434345"/>
<path d="M379.681 31.6458C380.569 31.6458 381.019 31.048 381.019 29.8449C381.019 28.6417 380.578 28.0625 379.7 28.0625C378.821 28.0625 378.384 28.6603 378.384 29.8525C378.384 31.0447 378.836 31.6458 379.695 31.6458H379.681ZM379.681 32.28C379.384 32.292 379.088 32.2393 378.814 32.1253C378.54 32.0113 378.293 31.8389 378.092 31.62C377.704 31.1116 377.494 30.4899 377.494 29.8504C377.494 29.2109 377.704 28.5891 378.092 28.0807C378.528 27.6647 379.107 27.4326 379.709 27.4326C380.311 27.4326 380.89 27.6647 381.326 28.0807C381.716 28.5901 381.928 29.2142 381.928 29.8563C381.928 30.4983 381.716 31.1225 381.326 31.6319C381.114 31.8514 380.858 32.0229 380.574 32.1349C380.29 32.2469 379.986 32.2958 379.681 32.28Z" fill="#434345"/>
<path d="M386.216 30.5684V28.6402C386.066 28.4657 385.881 28.3243 385.674 28.2251C385.466 28.1259 385.24 28.071 385.01 28.0639C384.831 28.0579 384.653 28.0975 384.494 28.1788C384.335 28.2601 384.198 28.3806 384.098 28.529C383.86 28.9104 383.746 29.3559 383.77 29.8049C383.77 30.8229 384.127 31.332 384.842 31.3323C385.114 31.3153 385.378 31.2378 385.616 31.1053C385.854 30.9728 386.059 30.7888 386.216 30.5667V30.5684ZM383.257 33.7179L383.356 32.9887C383.804 33.2098 384.296 33.3281 384.795 33.3349C385.743 33.3349 386.217 32.832 386.217 31.8261V31.0968C386.093 31.396 385.88 31.6498 385.607 31.8237C385.333 31.9977 385.013 32.0834 384.69 32.0692C384.437 32.0795 384.185 32.0301 383.954 31.925C383.724 31.8199 383.521 31.662 383.363 31.4642C383.017 30.991 382.844 30.4131 382.874 29.8277C382.846 29.2045 383.044 28.5921 383.432 28.1033C383.608 27.8884 383.831 27.7166 384.084 27.601C384.337 27.4854 384.612 27.429 384.89 27.4361C385.146 27.4361 385.399 27.4926 385.63 27.6016C385.861 27.7107 386.066 27.8696 386.228 28.0669V27.5346H387.074V30.9104C387.089 31.4498 387.051 31.9894 386.961 32.5215C386.902 32.8408 386.756 33.1374 386.538 33.378C386.309 33.5888 386.038 33.7498 385.743 33.8508C385.448 33.9518 385.136 33.9906 384.825 33.9648C384.292 33.9682 383.762 33.8848 383.256 33.7179H383.257Z" fill="#434345"/>
<path d="M389.224 29.3534H391.273C391.273 28.4897 390.948 28.0593 390.307 28.0593C389.665 28.0593 389.3 28.4897 389.224 29.3534ZM392.096 32.0252C391.625 32.1785 391.134 32.2639 390.638 32.2789C390.327 32.2909 390.016 32.2363 389.728 32.1187C389.439 32.0011 389.179 31.8232 388.965 31.597C388.745 31.3606 388.574 31.083 388.462 30.7804C388.35 30.4777 388.299 30.1558 388.311 29.8332C388.283 29.2065 388.487 28.5914 388.884 28.1054C389.059 27.8888 389.281 27.7152 389.534 27.5979C389.787 27.4807 390.063 27.4229 390.342 27.429C390.591 27.4156 390.839 27.463 391.066 27.5672C391.293 27.6715 391.491 27.8293 391.643 28.0272C391.979 28.5271 392.141 29.1244 392.102 29.7258V29.9879H389.185C389.304 31.0888 389.843 31.6392 390.804 31.6392C391.247 31.6195 391.683 31.5246 392.094 31.3585L392.096 32.0252Z" fill="#434345"/>
<path d="M340.584 0.860352H362.759V23.0894H360.947C358.506 23.1159 356.066 23.1455 353.625 23.1782L349.712 23.1888H340.559V14.0352L344.486 14.0272V19.1599H358.851V4.86472H344.47V9.99998L340.576 9.99195C340.579 6.94921 340.582 3.90534 340.584 0.860352Z" fill="#1679D3"/>
<path fill-rule="evenodd" clip-rule="evenodd" d="M353.626 23.1778V32.2282H331.471V9.99023H340.576L344.47 9.99827H353.624V19.1658H349.73V14.0259H344.482L340.554 14.0335H335.385V28.2898H349.713V23.1883L353.626 23.1778Z" fill="#FFD500"/>
</g>
<defs>
<clipPath id="clip0_34_1546">
<rect width="146" height="34" fill="white" transform="translate(-15)"/>
</clipPath>
<clipPath id="clip1_34_1546">
<rect width="146" height="34" fill="white" transform="translate(158)"/>
</clipPath>
<clipPath id="clip2_34_1546">
<rect width="146" height="34" fill="white" transform="translate(331)"/>
</clipPath>
</defs>
</svg>
